<svg width="274.716" height="30" viewBox="0 0 274.716 30" xmlns="http://www.w3.org/2000/svg"><g id="svgGroup" stroke-linecap="round" fill-rule="evenodd" font-size="9pt" stroke="#000" stroke-width="0.25mm" fill="#000" style="stroke:#000;stroke-width:0.25mm;fill:#000"><path d="M 264.375 7.685 L 261.804 7.685 Q 261.563 5.256 259.659 3.821 A 6.956 6.956 0 0 0 256.818 2.572 A 9.742 9.742 0 0 0 254.872 2.387 A 10.078 10.078 0 0 0 253.076 2.539 A 7.578 7.578 0 0 0 251.3 3.083 A 6.402 6.402 0 0 0 249.851 3.972 A 5.377 5.377 0 0 0 248.885 5.007 A 4.698 4.698 0 0 0 248.011 7.798 Q 248.011 8.949 248.509 9.816 A 4.766 4.766 0 0 0 249.851 11.3 Q 250.696 11.918 251.726 12.358 A 17.309 17.309 0 0 0 253.807 13.097 L 256.875 13.977 Q 258.267 14.361 259.659 14.958 Q 261.051 15.554 262.209 16.456 A 6.956 6.956 0 0 1 264.07 18.658 A 5.648 5.648 0 0 1 264.638 20.284 Q 264.772 20.978 264.773 21.77 A 9.648 9.648 0 0 1 264.773 21.776 Q 264.773 24.105 263.565 25.966 A 7.897 7.897 0 0 1 261.163 28.322 A 9.986 9.986 0 0 1 260.099 28.914 Q 257.924 29.96 254.917 29.999 A 18.021 18.021 0 0 1 254.688 30 A 15.093 15.093 0 0 1 252.239 29.811 Q 250.808 29.576 249.608 29.047 A 9.459 9.459 0 0 1 249.531 29.013 A 9.124 9.124 0 0 1 247.472 27.75 A 7.712 7.712 0 0 1 246.094 26.279 A 7.609 7.609 0 0 1 244.726 22.657 A 9.161 9.161 0 0 1 244.688 22.23 L 247.415 22.23 A 5.605 5.605 0 0 0 247.779 23.84 A 4.754 4.754 0 0 0 248.551 25.142 A 6.053 6.053 0 0 0 250.607 26.724 A 7.363 7.363 0 0 0 251.136 26.953 A 9.062 9.062 0 0 0 253.383 27.498 A 11.328 11.328 0 0 0 254.687 27.571 A 11.054 11.054 0 0 0 256.742 27.388 A 8.618 8.618 0 0 0 258.558 26.84 A 7.058 7.058 0 0 0 260.137 25.914 A 5.848 5.848 0 0 0 261.229 24.794 Q 262.202 23.48 262.202 21.733 Q 262.202 20.256 261.435 19.254 A 5.301 5.301 0 0 0 260.346 18.203 A 7.209 7.209 0 0 0 259.297 17.571 A 16.46 16.46 0 0 0 257.818 16.928 A 22.4 22.4 0 0 0 256.122 16.364 L 252.642 15.341 A 17.704 17.704 0 0 1 250.313 14.474 Q 248.518 13.649 247.33 12.514 A 6.018 6.018 0 0 1 245.448 8.258 A 8.023 8.023 0 0 1 245.44 7.912 A 7.395 7.395 0 0 1 245.861 5.39 A 6.723 6.723 0 0 1 246.697 3.786 A 8.247 8.247 0 0 1 249.551 1.281 A 9.979 9.979 0 0 1 250.107 1.002 A 10.738 10.738 0 0 1 253.475 0.079 A 13.289 13.289 0 0 1 254.943 0 A 12.593 12.593 0 0 1 257.5 0.249 A 9.84 9.84 0 0 1 259.744 0.994 A 8.818 8.818 0 0 1 262.019 2.529 A 7.916 7.916 0 0 1 263.061 3.729 A 7.187 7.187 0 0 1 264.375 7.685 Z M 17.159 29.503 L 0 29.503 L 0 0.412 L 16.875 0.412 L 16.875 2.798 L 2.656 2.798 L 2.656 13.75 L 15.98 13.75 L 15.98 16.137 L 2.656 16.137 L 2.656 27.117 L 17.159 27.117 L 17.159 29.503 Z M 67.145 29.503 L 49.986 29.503 L 49.986 0.412 L 66.861 0.412 L 66.861 2.798 L 52.642 2.798 L 52.642 13.75 L 65.966 13.75 L 65.966 16.137 L 52.642 16.137 L 52.642 27.117 L 67.145 27.117 L 67.145 29.503 Z M 76.378 29.503 L 73.722 29.503 L 73.722 0.412 L 83.111 0.412 Q 86.207 0.412 88.288 1.527 A 7.704 7.704 0 0 1 90.623 3.41 A 7.333 7.333 0 0 1 91.428 4.61 A 8.852 8.852 0 0 1 92.402 7.735 A 11.158 11.158 0 0 1 92.486 9.119 A 10.408 10.408 0 0 1 92.221 11.513 A 8.396 8.396 0 0 1 91.428 13.608 A 7.355 7.355 0 0 1 88.424 16.579 A 8.867 8.867 0 0 1 88.295 16.648 A 8.928 8.928 0 0 1 85.993 17.464 Q 84.952 17.687 83.748 17.731 A 16.411 16.411 0 0 1 83.153 17.742 L 75.156 17.742 L 75.156 15.313 L 83.082 15.313 A 11.377 11.377 0 0 0 84.68 15.207 Q 85.534 15.085 86.248 14.825 A 6.017 6.017 0 0 0 86.868 14.56 A 5.284 5.284 0 0 0 88.39 13.445 A 4.853 4.853 0 0 0 89.126 12.415 A 6.143 6.143 0 0 0 89.749 10.582 A 8.309 8.309 0 0 0 89.872 9.119 Q 89.872 7.216 89.119 5.789 A 5.153 5.153 0 0 0 86.901 3.604 A 6.248 6.248 0 0 0 86.854 3.58 A 6.497 6.497 0 0 0 85.277 3.022 Q 84.554 2.861 83.715 2.816 A 12.547 12.547 0 0 0 83.04 2.798 L 76.378 2.798 L 76.378 29.503 Z M 239.759 9.503 L 237.088 9.503 A 8.458 8.458 0 0 0 236.016 6.74 Q 235.241 5.469 234.077 4.517 A 8.8 8.8 0 0 0 231.435 3.04 A 9.205 9.205 0 0 0 228.901 2.534 A 10.802 10.802 0 0 0 228.239 2.514 A 9.195 9.195 0 0 0 223.217 3.949 A 9.415 9.415 0 0 0 220.455 6.667 A 12.202 12.202 0 0 0 219.595 8.161 A 12.626 12.626 0 0 0 218.583 11.222 Q 218.303 12.611 218.251 14.209 A 22.805 22.805 0 0 0 218.239 14.958 A 20.117 20.117 0 0 0 218.446 17.925 Q 218.687 19.543 219.211 20.895 A 11.167 11.167 0 0 0 219.595 21.776 A 11.384 11.384 0 0 0 221.123 24.144 A 9.091 9.091 0 0 0 223.217 25.973 Q 225.483 27.401 228.239 27.401 A 9.897 9.897 0 0 0 230.488 27.152 A 8.716 8.716 0 0 0 231.435 26.875 Q 232.912 26.35 234.077 25.405 Q 235.241 24.46 236.016 23.182 Q 236.79 21.904 237.088 20.412 L 239.759 20.412 Q 239.403 22.415 238.43 24.141 A 11.258 11.258 0 0 1 235.959 27.159 A 11.209 11.209 0 0 1 232.514 29.176 A 11.579 11.579 0 0 1 229.519 29.843 A 14.013 14.013 0 0 1 228.239 29.901 A 12.426 12.426 0 0 1 224.227 29.269 A 11.158 11.158 0 0 1 221.733 28.061 A 12.107 12.107 0 0 1 217.828 23.904 A 14.908 14.908 0 0 1 217.28 22.869 A 15.828 15.828 0 0 1 215.976 18.716 A 21.807 21.807 0 0 1 215.668 14.958 A 21.807 21.807 0 0 1 215.976 11.199 A 15.828 15.828 0 0 1 217.28 7.046 A 13.382 13.382 0 0 1 219.482 3.753 A 11.672 11.672 0 0 1 221.733 1.854 Q 224.574 0.014 228.239 0.014 A 13.185 13.185 0 0 1 230.935 0.281 A 11.126 11.126 0 0 1 232.514 0.732 Q 234.46 1.449 235.959 2.749 Q 237.457 4.048 238.43 5.767 Q 239.403 7.486 239.759 9.503 Z M 20.994 0.412 L 23.778 0.412 L 32.869 26.051 L 33.125 26.051 L 42.216 0.412 L 45 0.412 L 34.418 29.503 L 31.577 29.503 L 20.994 0.412 Z M 162.727 3.864 L 153.608 29.503 L 150.824 29.503 L 161.406 0.412 L 164.247 0.412 L 174.83 29.503 L 172.045 29.503 L 162.926 3.864 L 162.727 3.864 Z M 106.733 16.904 L 96.236 0.412 L 99.304 0.412 L 107.926 14.219 L 108.182 14.219 L 116.804 0.412 L 119.872 0.412 L 109.375 16.904 L 109.375 29.503 L 106.733 29.503 L 106.733 16.904 Z M 187.585 16.904 L 177.088 0.412 L 180.156 0.412 L 188.778 14.219 L 189.034 14.219 L 197.656 0.412 L 200.724 0.412 L 190.227 16.904 L 190.227 29.503 L 187.585 29.503 L 187.585 16.904 Z M 133.395 29.503 L 124.872 29.503 L 124.872 0.412 L 133.906 0.412 A 16.705 16.705 0 0 1 137.318 0.744 A 12.237 12.237 0 0 1 141.03 2.145 Q 143.991 3.878 145.568 7.117 A 14.991 14.991 0 0 1 146.798 10.923 Q 147.118 12.619 147.143 14.556 A 25.642 25.642 0 0 1 147.145 14.887 Q 147.145 19.257 145.673 22.44 A 13.298 13.298 0 0 1 145.533 22.735 A 11.437 11.437 0 0 1 140.845 27.756 A 12.933 12.933 0 0 1 136.974 29.169 Q 135.361 29.493 133.514 29.503 A 21.763 21.763 0 0 1 133.395 29.503 Z M 127.528 2.798 L 127.528 27.117 L 133.239 27.117 A 15.748 15.748 0 0 0 136.033 26.882 Q 137.628 26.594 138.931 25.954 A 9.25 9.25 0 0 0 139.517 25.639 A 9.235 9.235 0 0 0 143.31 21.421 A 13.208 13.208 0 0 0 144.296 18.211 Q 144.554 16.773 144.572 15.135 A 22.448 22.448 0 0 0 144.574 14.887 A 19.507 19.507 0 0 0 144.337 11.846 Q 144.032 9.957 143.331 8.409 A 9.442 9.442 0 0 0 141.273 5.452 A 8.899 8.899 0 0 0 139.695 4.247 A 9.732 9.732 0 0 0 136.676 3.086 Q 135.325 2.798 133.75 2.798 L 127.528 2.798 Z M 83.551 16.378 L 86.548 16.378 L 93.707 29.503 L 90.639 29.503 L 83.551 16.378 Z M 155.611 20.739 L 155.611 18.352 L 170.043 18.352 L 170.043 20.739 L 155.611 20.739 Z M 272.67 29.716 Q 271.832 29.716 271.229 29.112 A 2.026 2.026 0 0 1 270.732 28.336 A 2.029 2.029 0 0 1 270.625 27.671 A 1.959 1.959 0 0 1 271.209 26.242 A 2.36 2.36 0 0 1 271.229 26.222 A 2.011 2.011 0 0 1 272.087 25.706 A 2.078 2.078 0 0 1 272.67 25.625 A 1.971 1.971 0 0 1 274.101 26.203 A 2.343 2.343 0 0 1 274.119 26.222 A 1.97 1.97 0 0 1 274.716 27.644 A 2.419 2.419 0 0 1 274.716 27.671 Q 274.716 28.225 274.439 28.693 A 2.103 2.103 0 0 1 273.7 29.439 A 1.959 1.959 0 0 1 272.688 29.716 A 2.322 2.322 0 0 1 272.67 29.716 Z" vector-effect="non-scaling-stroke"/></g></svg>