<svg width="197.749" height="22.444" viewBox="0 0 197.749 22.444" xmlns="http://www.w3.org/2000/svg"><g id="svgGroup" stroke-linecap="round" fill-rule="evenodd" font-size="9pt" stroke="#000" stroke-width="0.25mm" fill="#000" style="stroke:#000;stroke-width:0.25mm;fill:#000"><path d="M 13.02 22.072 L 0 22.072 L 0 0.372 L 13.02 0.372 L 13.02 2.914 L 2.945 2.914 L 2.945 9.517 L 11.625 9.517 L 11.625 11.997 L 2.945 11.997 L 2.945 19.53 L 13.02 19.53 L 13.02 22.072 Z M 50.065 22.072 L 37.045 22.072 L 37.045 0.372 L 50.065 0.372 L 50.065 2.914 L 39.99 2.914 L 39.99 9.517 L 48.67 9.517 L 48.67 11.997 L 39.99 11.997 L 39.99 19.53 L 50.065 19.53 L 50.065 22.072 Z M 174.344 20.243 L 175.832 17.763 Q 176.948 18.693 178.343 19.282 A 7.238 7.238 0 0 0 180.008 19.75 A 9.957 9.957 0 0 0 181.598 19.871 A 8.674 8.674 0 0 0 183.008 19.764 Q 183.759 19.64 184.367 19.373 A 4.247 4.247 0 0 0 185.132 18.941 A 3.187 3.187 0 0 0 185.999 18.041 Q 186.407 17.388 186.432 16.543 A 3.757 3.757 0 0 0 186.434 16.43 A 3.701 3.701 0 0 0 186.329 15.533 A 3.043 3.043 0 0 0 186.062 14.834 Q 185.692 14.139 184.631 13.476 A 8.283 8.283 0 0 0 184.62 13.47 A 9.952 9.952 0 0 0 183.854 13.042 Q 182.902 12.561 181.474 12.028 A 28.028 28.028 0 0 1 180.046 11.429 Q 179.346 11.112 178.765 10.792 A 12.244 12.244 0 0 1 177.909 10.277 A 6.799 6.799 0 0 1 176.951 9.518 Q 176.343 8.933 176.003 8.262 A 5.167 5.167 0 0 1 175.531 6.813 A 7.108 7.108 0 0 1 175.429 5.58 Q 175.429 4.03 176.282 2.775 Q 177.134 1.519 178.793 0.76 A 7.923 7.923 0 0 1 180.621 0.191 Q 181.627 0 182.807 0 Q 184.729 0 186.264 0.388 Q 187.798 0.775 189.255 1.488 L 188.17 3.999 A 9.764 9.764 0 0 0 186.891 3.373 A 12.923 12.923 0 0 0 185.706 2.961 Q 184.295 2.542 182.745 2.542 A 8.428 8.428 0 0 0 181.496 2.629 Q 180.835 2.728 180.296 2.941 A 3.911 3.911 0 0 0 179.521 3.348 A 3.069 3.069 0 0 0 178.85 3.957 A 2.281 2.281 0 0 0 178.343 5.425 A 3.244 3.244 0 0 0 178.434 6.207 A 2.654 2.654 0 0 0 178.684 6.851 A 2.143 2.143 0 0 0 179.015 7.293 Q 179.387 7.683 180.033 8.06 A 10.231 10.231 0 0 0 180.719 8.423 Q 181.423 8.765 182.418 9.152 A 40.303 40.303 0 0 0 183.055 9.393 Q 184.766 10.029 185.973 10.712 A 11.006 11.006 0 0 1 186.884 11.284 Q 188.039 12.097 188.643 13.024 A 4.411 4.411 0 0 1 188.883 13.439 A 5.449 5.449 0 0 1 189.423 15.256 A 6.868 6.868 0 0 1 189.472 16.089 A 6.73 6.73 0 0 1 189.265 17.794 A 5.302 5.302 0 0 1 188.465 19.53 A 6.082 6.082 0 0 1 186.316 21.397 A 7.551 7.551 0 0 1 185.675 21.7 A 9.462 9.462 0 0 1 183.377 22.321 A 12.408 12.408 0 0 1 181.598 22.444 A 14.684 14.684 0 0 1 179.188 22.254 A 11.795 11.795 0 0 1 177.475 21.84 A 11.844 11.844 0 0 1 175.811 21.163 A 8.814 8.814 0 0 1 174.344 20.243 Z M 26.009 22.072 L 22.692 22.072 L 14.725 1.147 L 17.608 0.031 L 24.428 18.848 L 31.279 0.124 L 33.945 1.147 L 26.009 22.072 Z M 69.657 21.142 L 66.898 22.444 L 64.201 16.554 A 9.482 9.482 0 0 0 63.398 15.136 Q 62.621 14.019 61.628 13.423 A 6.092 6.092 0 0 0 59.923 12.74 Q 59.161 12.555 58.269 12.509 A 11.733 11.733 0 0 0 57.66 12.493 L 57.195 12.493 L 57.195 22.072 L 54.25 22.072 L 54.25 0.434 A 76.849 76.849 0 0 1 56.636 0.245 A 66.894 66.894 0 0 1 57.397 0.202 Q 58.9 0.124 60.605 0.124 A 15.625 15.625 0 0 1 62.788 0.266 Q 63.903 0.424 64.804 0.757 A 6.23 6.23 0 0 1 66.573 1.736 A 5.398 5.398 0 0 1 68.008 3.452 Q 68.572 4.54 68.572 5.89 A 6.163 6.163 0 0 1 68.37 7.508 A 4.548 4.548 0 0 1 67.223 9.533 A 6.517 6.517 0 0 1 65.697 10.673 Q 64.683 11.232 63.333 11.594 A 7.333 7.333 0 0 1 64.396 12.171 A 6.332 6.332 0 0 1 64.821 12.478 A 5.447 5.447 0 0 1 65.46 13.074 Q 65.735 13.372 66.001 13.736 A 9.082 9.082 0 0 1 66.076 13.842 A 9.644 9.644 0 0 1 66.532 14.553 Q 66.764 14.951 66.999 15.423 A 20.207 20.207 0 0 1 67.301 16.058 L 69.657 21.142 Z M 171.709 1.116 L 170.81 3.596 Q 169.849 3.131 168.842 2.852 A 7.135 7.135 0 0 0 167.892 2.661 Q 167.401 2.595 166.847 2.579 A 12.619 12.619 0 0 0 166.47 2.573 A 6.564 6.564 0 0 0 164.02 3.024 A 6.194 6.194 0 0 0 162.92 3.596 A 6.562 6.562 0 0 0 160.947 5.636 A 8.363 8.363 0 0 0 160.456 6.541 A 9.046 9.046 0 0 0 159.782 8.665 Q 159.557 9.827 159.557 11.191 A 12.977 12.977 0 0 0 159.748 13.471 A 9.588 9.588 0 0 0 160.441 15.748 A 7.96 7.96 0 0 0 161.552 17.555 A 6.641 6.641 0 0 0 162.889 18.786 A 6.108 6.108 0 0 0 166.345 19.87 A 7.407 7.407 0 0 0 166.47 19.871 A 10.452 10.452 0 0 0 167.701 19.802 Q 168.325 19.728 168.862 19.574 A 5.977 5.977 0 0 0 169.105 19.499 Q 170.221 19.127 171.275 18.538 L 172.174 20.987 A 11.644 11.644 0 0 1 170.781 21.621 A 14.847 14.847 0 0 1 169.555 22.026 A 10.414 10.414 0 0 1 168.015 22.333 Q 167.246 22.43 166.379 22.442 A 17.796 17.796 0 0 1 166.129 22.444 Q 163.308 22.444 161.138 21.096 A 8.866 8.866 0 0 1 158.076 17.858 A 10.824 10.824 0 0 1 157.759 17.252 A 11.659 11.659 0 0 1 156.798 14.239 Q 156.55 12.874 156.55 11.315 Q 156.55 7.998 157.775 5.441 A 9.807 9.807 0 0 1 159.938 2.455 A 9.257 9.257 0 0 1 161.246 1.442 A 9.105 9.105 0 0 1 165.177 0.074 A 11.56 11.56 0 0 1 166.501 0 A 14.148 14.148 0 0 1 168.069 0.083 A 10.912 10.912 0 0 1 169.322 0.295 A 11.849 11.849 0 0 1 171.639 1.083 A 11.028 11.028 0 0 1 171.709 1.116 Z M 80.29 22.072 L 77.345 22.072 L 77.345 13.826 L 69.812 1.581 L 72.292 0.093 L 78.926 11.098 L 85.436 0.217 L 87.761 1.581 L 80.29 13.826 L 80.29 22.072 Z M 137.919 22.072 L 134.974 22.072 L 134.974 13.826 L 127.441 1.581 L 129.921 0.093 L 136.555 11.098 L 143.065 0.217 L 145.39 1.581 L 137.919 13.826 L 137.919 22.072 Z M 128.991 21.297 L 126.294 22.382 L 123.876 16.182 L 113.832 16.182 L 111.414 22.32 L 108.903 21.297 L 117.397 0.372 L 120.621 0.372 L 128.991 21.297 Z M 90.861 22.01 L 90.861 0.434 Q 92.318 0.279 93.713 0.202 A 46.906 46.906 0 0 1 95.011 0.149 Q 95.895 0.124 96.906 0.124 A 15.069 15.069 0 0 1 99.183 0.287 Q 100.402 0.474 101.435 0.874 A 9.051 9.051 0 0 1 101.726 0.992 A 9.603 9.603 0 0 1 103.986 2.331 A 8.439 8.439 0 0 1 105.075 3.379 Q 106.392 4.898 107.027 6.898 Q 107.663 8.897 107.663 11.191 A 14.046 14.046 0 0 1 107.204 14.817 A 12.958 12.958 0 0 1 107.012 15.469 Q 106.361 17.484 105.013 19.019 A 8.98 8.98 0 0 1 102.453 21.018 A 10.93 10.93 0 0 1 101.571 21.437 Q 99.626 22.258 96.971 22.316 A 18.659 18.659 0 0 1 96.565 22.32 A 57.964 57.964 0 0 1 95.303 22.307 Q 94.679 22.293 94.123 22.266 A 31.464 31.464 0 0 1 93.48 22.227 Q 92.163 22.134 90.861 22.01 Z M 93.806 2.821 L 93.806 19.592 Q 94.457 19.685 95.17 19.716 A 33.252 33.252 0 0 0 96.274 19.745 A 37.598 37.598 0 0 0 96.658 19.747 Q 99.448 19.747 101.215 18.662 Q 102.982 17.577 103.819 15.64 A 10.01 10.01 0 0 0 104.518 13.137 A 13.176 13.176 0 0 0 104.656 11.191 Q 104.656 8.959 103.819 7.006 Q 102.982 5.053 101.246 3.86 A 6.477 6.477 0 0 0 99.06 2.911 Q 98.179 2.701 97.153 2.671 A 11.782 11.782 0 0 0 96.813 2.666 Q 95.914 2.666 95.17 2.713 Q 94.426 2.759 93.806 2.821 Z M 118.854 3.286 L 114.762 13.702 L 122.915 13.702 L 118.854 3.286 Z M 57.195 2.728 L 57.195 10.013 L 60.605 10.013 Q 62.462 10.013 63.739 9.327 A 4.634 4.634 0 0 0 64.232 9.021 A 3.189 3.189 0 0 0 65.598 6.689 A 4.499 4.499 0 0 0 65.627 6.169 A 3.041 3.041 0 0 0 64.612 3.855 A 4.115 4.115 0 0 0 64.325 3.612 Q 63.321 2.834 61.652 2.657 A 9.903 9.903 0 0 0 60.605 2.604 A 61.755 61.755 0 0 0 59.665 2.611 Q 59.222 2.618 58.826 2.631 A 36.874 36.874 0 0 0 58.714 2.635 Q 57.877 2.666 57.195 2.728 Z M 194.234 21.843 A 1.989 1.989 0 0 0 195.672 22.444 A 2.668 2.668 0 0 0 195.865 22.437 A 2.003 2.003 0 0 0 197.16 21.871 A 1.87 1.87 0 0 0 197.654 21.058 A 2.385 2.385 0 0 0 197.749 20.367 A 1.93 1.93 0 0 0 197.57 19.539 A 2.156 2.156 0 0 0 197.113 18.91 A 2.628 2.628 0 0 0 196.952 18.765 A 1.961 1.961 0 0 0 195.672 18.29 A 2.732 2.732 0 0 0 195.098 18.347 A 1.854 1.854 0 0 0 194.153 18.848 A 1.837 1.837 0 0 0 193.667 19.728 A 2.674 2.674 0 0 0 193.595 20.367 Q 193.595 21.204 194.215 21.824 A 2.583 2.583 0 0 0 194.234 21.843 Z" vector-effect="non-scaling-stroke"/></g></svg>