<svg width="222.68" height="29.943" viewBox="0 0 222.68 29.943" xmlns="http://www.w3.org/2000/svg"><g id="svgGroup" stroke-linecap="round" fill-rule="evenodd" font-size="9pt" stroke="#000" stroke-width="0.25mm" fill="#000" style="stroke:#000;stroke-width:0.25mm;fill:#000"><path d="M 97.756 13.078 L 97.756 23.25 L 95.158 23.25 L 95.158 0.705 L 97.756 0.705 L 97.756 8.983 L 97.976 8.983 A 4.803 4.803 0 0 1 99.765 6.897 Q 100.735 6.267 102.231 6.148 A 9.139 9.139 0 0 1 102.952 6.121 A 7.375 7.375 0 0 1 104.478 6.272 A 5.711 5.711 0 0 1 105.979 6.809 A 4.665 4.665 0 0 1 107.859 8.653 A 5.773 5.773 0 0 1 107.999 8.912 A 6.042 6.042 0 0 1 108.492 10.296 Q 108.649 10.972 108.698 11.763 A 12.012 12.012 0 0 1 108.72 12.506 L 108.72 23.25 L 106.122 23.25 L 106.122 12.682 A 6.281 6.281 0 0 0 106.01 11.458 Q 105.864 10.723 105.528 10.155 A 3.373 3.373 0 0 0 105.082 9.561 A 3.42 3.42 0 0 0 103.231 8.554 A 5.074 5.074 0 0 0 102.203 8.455 A 5.172 5.172 0 0 0 100.852 8.625 A 4.39 4.39 0 0 0 99.919 8.994 A 3.897 3.897 0 0 0 98.334 10.568 Q 97.756 11.603 97.756 13.078 Z M 177.766 26.553 L 179.835 25.1 Q 180.188 25.562 180.727 26.162 Q 181.266 26.762 182.208 27.208 Q 183.149 27.654 184.679 27.654 A 6.965 6.965 0 0 0 186.169 27.502 A 4.865 4.865 0 0 0 188.059 26.663 Q 189.348 25.704 189.389 23.694 A 6.537 6.537 0 0 0 189.391 23.558 L 189.391 20.124 L 189.17 20.124 Q 188.978 20.434 188.679 20.842 A 21.628 21.628 0 0 1 188.361 21.263 Q 187.838 21.94 186.864 22.463 A 3.869 3.869 0 0 1 185.98 22.797 Q 185.559 22.903 185.061 22.95 A 8.854 8.854 0 0 1 184.239 22.986 A 7.418 7.418 0 0 1 181.901 22.626 A 6.679 6.679 0 0 1 180.567 22.017 A 6.577 6.577 0 0 1 178.313 19.756 A 8.117 8.117 0 0 1 178.002 19.199 Q 177.117 17.46 177.064 15.02 A 14.441 14.441 0 0 1 177.061 14.708 A 12.495 12.495 0 0 1 177.249 12.49 A 9.203 9.203 0 0 1 177.975 10.178 Q 178.888 8.246 180.518 7.183 A 6.564 6.564 0 0 1 183.628 6.147 A 8.14 8.14 0 0 1 184.283 6.121 Q 185.414 6.121 186.227 6.377 A 3.606 3.606 0 0 1 186.908 6.666 A 6.059 6.059 0 0 1 187.625 7.132 Q 187.992 7.412 188.262 7.723 A 3.478 3.478 0 0 1 188.405 7.899 A 33.266 33.266 0 0 1 188.652 8.227 Q 189 8.697 189.214 9.027 L 189.479 9.027 L 189.479 6.341 L 191.989 6.341 L 191.989 23.735 Q 191.989 25.594 191.272 26.865 A 4.551 4.551 0 0 1 191.003 27.285 Q 190.018 28.655 188.361 29.299 A 9.48 9.48 0 0 1 185.909 29.881 A 11.737 11.737 0 0 1 184.679 29.943 A 12.466 12.466 0 0 1 183.237 29.864 Q 182.494 29.778 181.856 29.596 A 6.936 6.936 0 0 1 181.442 29.465 A 8.146 8.146 0 0 1 180.273 28.95 A 6.068 6.068 0 0 1 179.191 28.21 A 7.616 7.616 0 0 1 178.299 27.303 A 6.135 6.135 0 0 1 177.766 26.553 Z M 0 0.705 L 2.862 0.705 L 9.555 19.683 L 9.82 19.683 L 16.513 0.705 L 19.375 0.705 L 11.097 23.25 L 8.278 23.25 L 0 0.705 Z M 144.828 13.078 L 144.828 23.25 L 142.23 23.25 L 142.23 6.341 L 144.74 6.341 L 144.74 8.983 L 144.96 8.983 Q 145.555 7.695 146.766 6.908 A 4.572 4.572 0 0 1 148.153 6.318 Q 148.934 6.121 149.892 6.121 A 7.129 7.129 0 0 1 151.455 6.285 A 5.557 5.557 0 0 1 152.897 6.82 A 4.709 4.709 0 0 1 154.75 8.654 A 5.818 5.818 0 0 1 154.901 8.934 Q 155.494 10.107 155.596 11.79 A 11.912 11.912 0 0 1 155.616 12.506 L 155.616 23.25 L 153.018 23.25 L 153.018 12.682 A 6.172 6.172 0 0 0 152.899 11.429 Q 152.74 10.664 152.371 10.077 A 3.435 3.435 0 0 0 151.984 9.572 A 3.406 3.406 0 0 0 150.048 8.534 A 4.96 4.96 0 0 0 149.143 8.455 A 4.9 4.9 0 0 0 147.846 8.621 A 4.158 4.158 0 0 0 146.925 8.994 A 3.835 3.835 0 0 0 145.425 10.504 A 4.584 4.584 0 0 0 145.39 10.568 Q 144.844 11.574 144.829 12.995 A 7.652 7.652 0 0 0 144.828 13.078 Z M 51.564 11.933 L 51.564 11.845 A 4.808 4.808 0 0 0 51.462 10.822 Q 51.263 9.909 50.678 9.313 Q 49.944 8.566 48.587 8.437 A 6.262 6.262 0 0 0 47.997 8.411 Q 46.664 8.411 45.744 8.829 A 3.356 3.356 0 0 0 45.08 9.225 Q 44.184 9.916 43.739 10.686 A 3.516 3.516 0 0 0 43.594 10.965 L 41.128 10.084 A 6.989 6.989 0 0 1 41.831 8.807 A 5.271 5.271 0 0 1 42.895 7.679 A 6.659 6.659 0 0 1 45.317 6.468 A 10.259 10.259 0 0 1 47.589 6.126 A 9.464 9.464 0 0 1 47.909 6.121 A 8.383 8.383 0 0 1 48.669 6.158 Q 49.059 6.193 49.492 6.263 A 15.184 15.184 0 0 1 49.786 6.314 Q 50.848 6.506 51.845 7.101 A 4.223 4.223 0 0 1 53.006 8.14 A 5.608 5.608 0 0 1 53.501 8.895 A 4.722 4.722 0 0 1 53.929 10.005 Q 54.162 10.913 54.162 12.11 L 54.162 23.25 L 51.564 23.25 L 51.564 20.96 L 51.432 20.96 Q 51.168 21.511 50.551 22.138 Q 49.973 22.727 49.037 23.15 A 7.277 7.277 0 0 1 48.911 23.206 Q 47.887 23.647 46.412 23.647 A 7.317 7.317 0 0 1 44.608 23.431 A 6.278 6.278 0 0 1 43.495 23.036 A 4.954 4.954 0 0 1 41.414 21.263 A 4.553 4.553 0 0 1 40.73 19.505 A 6.141 6.141 0 0 1 40.643 18.451 Q 40.643 16.997 41.216 16.089 A 4.055 4.055 0 0 1 42.746 14.664 A 7.947 7.947 0 0 1 44.402 14.003 A 9.207 9.207 0 0 1 44.865 13.887 Q 46.027 13.629 47.205 13.475 Q 48.583 13.297 49.499 13.195 A 67.303 67.303 0 0 1 49.709 13.172 A 7.365 7.365 0 0 0 50.21 13.101 Q 50.687 13.016 50.988 12.88 A 1.586 1.586 0 0 0 51.118 12.814 A 0.842 0.842 0 0 0 51.536 12.224 A 1.421 1.421 0 0 0 51.564 11.933 Z M 123.604 11.933 L 123.604 11.845 A 4.808 4.808 0 0 0 123.501 10.822 Q 123.303 9.909 122.718 9.313 Q 121.984 8.566 120.627 8.437 A 6.262 6.262 0 0 0 120.037 8.411 Q 118.704 8.411 117.783 8.829 A 3.356 3.356 0 0 0 117.12 9.225 Q 116.224 9.916 115.779 10.686 A 3.516 3.516 0 0 0 115.634 10.965 L 113.168 10.084 A 6.989 6.989 0 0 1 113.871 8.807 A 5.271 5.271 0 0 1 114.934 7.679 A 6.659 6.659 0 0 1 117.356 6.468 A 10.259 10.259 0 0 1 119.629 6.126 A 9.464 9.464 0 0 1 119.949 6.121 A 8.383 8.383 0 0 1 120.709 6.158 Q 121.098 6.193 121.532 6.263 A 15.184 15.184 0 0 1 121.826 6.314 Q 122.888 6.506 123.884 7.101 A 4.223 4.223 0 0 1 125.046 8.14 A 5.608 5.608 0 0 1 125.541 8.895 A 4.722 4.722 0 0 1 125.969 10.005 Q 126.202 10.913 126.202 12.11 L 126.202 23.25 L 123.604 23.25 L 123.604 20.96 L 123.472 20.96 Q 123.207 21.511 122.591 22.138 Q 122.013 22.727 121.077 23.15 A 7.277 7.277 0 0 1 120.951 23.206 Q 119.927 23.647 118.452 23.647 A 7.317 7.317 0 0 1 116.648 23.431 A 6.278 6.278 0 0 1 115.534 23.036 A 4.954 4.954 0 0 1 113.454 21.263 A 4.553 4.553 0 0 1 112.77 19.505 A 6.141 6.141 0 0 1 112.683 18.451 Q 112.683 16.997 113.256 16.089 A 4.055 4.055 0 0 1 114.786 14.664 A 7.947 7.947 0 0 1 116.442 14.003 A 9.207 9.207 0 0 1 116.905 13.887 Q 118.066 13.629 119.244 13.475 Q 120.623 13.297 121.539 13.195 A 67.303 67.303 0 0 1 121.749 13.172 A 7.365 7.365 0 0 0 122.25 13.101 Q 122.727 13.016 123.028 12.88 A 1.586 1.586 0 0 0 123.158 12.814 A 0.842 0.842 0 0 0 123.576 12.224 A 1.421 1.421 0 0 0 123.604 11.933 Z M 170.5 11.933 L 170.5 11.845 A 4.808 4.808 0 0 0 170.398 10.822 Q 170.199 9.909 169.614 9.313 Q 168.88 8.566 167.523 8.437 A 6.262 6.262 0 0 0 166.933 8.411 Q 165.6 8.411 164.68 8.829 A 3.356 3.356 0 0 0 164.016 9.225 Q 163.12 9.916 162.675 10.686 A 3.516 3.516 0 0 0 162.53 10.965 L 160.064 10.084 A 6.989 6.989 0 0 1 160.768 8.807 A 5.271 5.271 0 0 1 161.831 7.679 A 6.659 6.659 0 0 1 164.253 6.468 A 10.259 10.259 0 0 1 166.525 6.126 A 9.464 9.464 0 0 1 166.845 6.121 A 8.383 8.383 0 0 1 167.605 6.158 Q 167.995 6.193 168.428 6.263 A 15.184 15.184 0 0 1 168.722 6.314 Q 169.784 6.506 170.781 7.101 A 4.223 4.223 0 0 1 171.942 8.14 A 5.608 5.608 0 0 1 172.438 8.895 A 4.722 4.722 0 0 1 172.865 10.005 Q 173.098 10.913 173.098 12.11 L 173.098 23.25 L 170.5 23.25 L 170.5 20.96 L 170.368 20.96 Q 170.104 21.511 169.487 22.138 Q 168.909 22.727 167.973 23.15 A 7.277 7.277 0 0 1 167.847 23.206 Q 166.823 23.647 165.348 23.647 A 7.317 7.317 0 0 1 163.544 23.431 A 6.278 6.278 0 0 1 162.431 23.036 A 4.954 4.954 0 0 1 160.35 21.263 A 4.553 4.553 0 0 1 159.667 19.505 A 6.141 6.141 0 0 1 159.58 18.451 Q 159.58 16.997 160.152 16.089 A 4.055 4.055 0 0 1 161.682 14.664 A 7.947 7.947 0 0 1 163.338 14.003 A 9.207 9.207 0 0 1 163.801 13.887 Q 164.963 13.629 166.141 13.475 Q 167.519 13.297 168.435 13.195 A 67.303 67.303 0 0 1 168.645 13.172 A 7.365 7.365 0 0 0 169.146 13.101 Q 169.623 13.016 169.924 12.88 A 1.586 1.586 0 0 0 170.054 12.814 A 0.842 0.842 0 0 0 170.472 12.224 A 1.421 1.421 0 0 0 170.5 11.933 Z M 206.872 11.933 L 206.872 11.845 A 4.808 4.808 0 0 0 206.77 10.822 Q 206.571 9.909 205.986 9.313 Q 205.252 8.566 203.895 8.437 A 6.262 6.262 0 0 0 203.305 8.411 Q 201.972 8.411 201.052 8.829 A 3.356 3.356 0 0 0 200.388 9.225 Q 199.492 9.916 199.047 10.686 A 3.516 3.516 0 0 0 198.902 10.965 L 196.436 10.084 A 6.989 6.989 0 0 1 197.14 8.807 A 5.271 5.271 0 0 1 198.203 7.679 A 6.659 6.659 0 0 1 200.625 6.468 A 10.259 10.259 0 0 1 202.897 6.126 A 9.464 9.464 0 0 1 203.217 6.121 A 8.383 8.383 0 0 1 203.978 6.158 Q 204.367 6.193 204.8 6.263 A 15.184 15.184 0 0 1 205.094 6.314 Q 206.157 6.506 207.153 7.101 A 4.223 4.223 0 0 1 208.314 8.14 A 5.608 5.608 0 0 1 208.81 8.895 A 4.722 4.722 0 0 1 209.237 10.005 Q 209.47 10.913 209.47 12.11 L 209.47 23.25 L 206.872 23.25 L 206.872 20.96 L 206.74 20.96 Q 206.476 21.511 205.859 22.138 Q 205.281 22.727 204.345 23.15 A 7.277 7.277 0 0 1 204.219 23.206 Q 203.195 23.647 201.72 23.647 A 7.317 7.317 0 0 1 199.916 23.431 A 6.278 6.278 0 0 1 198.803 23.036 A 4.954 4.954 0 0 1 196.722 21.263 A 4.553 4.553 0 0 1 196.039 19.505 A 6.141 6.141 0 0 1 195.952 18.451 Q 195.952 16.997 196.524 16.089 A 4.055 4.055 0 0 1 198.054 14.664 A 7.947 7.947 0 0 1 199.71 14.003 A 9.207 9.207 0 0 1 200.173 13.887 Q 201.335 13.629 202.513 13.475 Q 203.891 13.297 204.808 13.195 A 67.303 67.303 0 0 1 205.017 13.172 A 7.365 7.365 0 0 0 205.518 13.101 Q 205.995 13.016 206.296 12.88 A 1.586 1.586 0 0 0 206.426 12.814 A 0.842 0.842 0 0 0 206.844 12.224 A 1.421 1.421 0 0 0 206.872 11.933 Z M 83.489 23.25 L 75.342 23.25 L 75.342 0.705 L 83.224 0.705 A 11.294 11.294 0 0 1 84.859 0.816 Q 85.705 0.94 86.41 1.202 A 5.853 5.853 0 0 1 87.11 1.514 A 5.943 5.943 0 0 1 88.481 2.495 A 5.018 5.018 0 0 1 89.389 3.683 A 6.091 6.091 0 0 1 90.135 6.488 A 7.167 7.167 0 0 1 90.138 6.693 Q 90.138 7.859 89.808 8.699 A 3.566 3.566 0 0 1 89.626 9.093 A 4.268 4.268 0 0 1 88.817 10.165 A 3.879 3.879 0 0 1 88.283 10.59 A 6.187 6.187 0 0 1 86.483 11.405 L 86.483 11.625 A 3.995 3.995 0 0 1 87.781 11.94 A 5.346 5.346 0 0 1 88.564 12.352 A 4.949 4.949 0 0 1 89.866 13.564 A 6.302 6.302 0 0 1 90.314 14.245 A 5.138 5.138 0 0 1 90.874 15.758 Q 91.007 16.399 91.018 17.136 A 8.883 8.883 0 0 1 91.018 17.262 A 6.407 6.407 0 0 1 90.732 19.201 A 5.718 5.718 0 0 1 90.248 20.311 A 4.887 4.887 0 0 1 88.81 21.877 A 6.604 6.604 0 0 1 87.815 22.458 A 7.252 7.252 0 0 1 86.299 22.971 Q 85.07 23.25 83.489 23.25 Z M 58.918 24.483 L 58.918 6.341 L 61.516 6.341 L 61.516 24.483 Q 61.516 26.019 61 27.151 A 4.842 4.842 0 0 1 60.982 27.191 Q 60.448 28.336 59.374 28.964 A 4.324 4.324 0 0 1 58.162 29.434 Q 57.624 29.559 56.997 29.585 A 8.034 8.034 0 0 1 56.672 29.591 L 56.408 29.591 L 56.143 29.591 L 56.143 27.169 L 56.386 27.169 L 56.628 27.169 Q 57.817 27.169 58.367 26.47 A 2.322 2.322 0 0 0 58.752 25.718 Q 58.856 25.387 58.894 24.988 A 5.234 5.234 0 0 0 58.918 24.483 Z M 32.497 23.25 L 29.899 23.25 L 29.899 6.341 L 32.409 6.341 L 32.409 8.895 L 32.585 8.895 A 4.006 4.006 0 0 1 34.056 6.996 A 5.004 5.004 0 0 1 34.259 6.859 A 4.916 4.916 0 0 1 36.941 6.077 A 5.878 5.878 0 0 1 36.989 6.077 A 17.838 17.838 0 0 1 37.141 6.078 Q 37.374 6.08 37.684 6.087 A 50.029 50.029 0 0 1 37.704 6.088 A 18.657 18.657 0 0 1 37.906 6.094 Q 38.1 6.101 38.239 6.111 A 4.204 4.204 0 0 1 38.354 6.121 L 38.354 8.763 Q 38.251 8.737 37.943 8.688 A 27.573 27.573 0 0 0 37.755 8.659 Q 37.286 8.587 36.768 8.587 A 5.082 5.082 0 0 0 35.535 8.731 A 4.219 4.219 0 0 0 34.572 9.099 A 3.907 3.907 0 0 0 33.053 10.508 Q 32.497 11.405 32.497 12.55 L 32.497 23.25 Z M 216.824 23.25 L 214.226 23.25 L 214.226 6.341 L 216.736 6.341 L 216.736 8.895 L 216.912 8.895 A 4.006 4.006 0 0 1 218.383 6.996 A 5.004 5.004 0 0 1 218.585 6.859 A 4.916 4.916 0 0 1 221.268 6.077 A 5.878 5.878 0 0 1 221.315 6.077 A 17.838 17.838 0 0 1 221.467 6.078 Q 221.701 6.08 222.01 6.087 A 50.029 50.029 0 0 1 222.031 6.088 A 18.657 18.657 0 0 1 222.232 6.094 Q 222.427 6.101 222.566 6.111 A 4.204 4.204 0 0 1 222.68 6.121 L 222.68 8.763 Q 222.577 8.737 222.27 8.688 A 27.573 27.573 0 0 0 222.081 8.659 Q 221.613 8.587 221.095 8.587 A 5.082 5.082 0 0 0 219.861 8.731 A 4.219 4.219 0 0 0 218.899 9.099 A 3.907 3.907 0 0 0 217.38 10.508 Q 216.824 11.405 216.824 12.55 L 216.824 23.25 Z M 132.102 19.111 L 132.102 2.29 L 134.7 2.29 L 134.7 18.406 A 5.997 5.997 0 0 0 134.726 18.982 Q 134.792 19.661 135.025 20.052 A 1.908 1.908 0 0 0 135.329 20.444 A 1.451 1.451 0 0 0 135.862 20.779 A 3.217 3.217 0 0 0 136.942 20.96 A 3.569 3.569 0 0 0 136.946 20.96 Q 137.234 20.96 137.453 20.938 A 2.622 2.622 0 0 0 137.651 20.911 Q 137.926 20.861 138.091 20.828 L 138.619 23.162 Q 138.381 23.252 137.971 23.346 A 11.116 11.116 0 0 1 137.882 23.366 A 3.854 3.854 0 0 1 137.496 23.429 Q 137.295 23.452 137.062 23.462 A 8.713 8.713 0 0 1 136.682 23.47 A 5.192 5.192 0 0 1 134.53 22.997 A 4.239 4.239 0 0 1 132.79 21.555 Q 132.111 20.598 132.102 19.148 A 6.289 6.289 0 0 1 132.102 19.111 Z M 25.143 23.25 L 22.545 23.25 L 22.545 6.341 L 25.143 6.341 L 25.143 23.25 Z M 184.591 20.652 A 5.678 5.678 0 0 0 185.824 20.525 A 4.153 4.153 0 0 0 187.233 19.937 A 4.262 4.262 0 0 0 188.603 18.436 A 5.43 5.43 0 0 0 188.873 17.878 A 6.878 6.878 0 0 0 189.292 16.415 Q 189.412 15.733 189.431 14.955 A 12.068 12.068 0 0 0 189.435 14.664 A 10.333 10.333 0 0 0 189.314 13.045 A 7.643 7.643 0 0 0 188.884 11.438 A 5.354 5.354 0 0 0 188.176 10.157 A 4.478 4.478 0 0 0 187.255 9.247 A 4.02 4.02 0 0 0 185.554 8.536 A 5.482 5.482 0 0 0 184.591 8.455 A 5.381 5.381 0 0 0 183.341 8.593 A 3.938 3.938 0 0 0 181.844 9.291 A 4.913 4.913 0 0 0 180.388 11.111 A 6.032 6.032 0 0 0 180.204 11.537 A 8.094 8.094 0 0 0 179.712 13.62 A 9.983 9.983 0 0 0 179.659 14.664 A 9.517 9.517 0 0 0 179.781 16.224 A 7.112 7.112 0 0 0 180.215 17.774 A 5.013 5.013 0 0 0 181.025 19.122 A 4.429 4.429 0 0 0 181.866 19.887 A 4.141 4.141 0 0 0 183.433 20.542 A 5.813 5.813 0 0 0 184.591 20.652 Z M 78.072 12.99 L 78.072 20.828 L 83.489 20.828 A 10.869 10.869 0 0 0 84.801 20.755 Q 86.21 20.583 87.02 20.008 A 2.743 2.743 0 0 0 87.292 19.788 A 3.524 3.524 0 0 0 88.129 18.656 A 3.328 3.328 0 0 0 88.42 17.262 A 4.05 4.05 0 0 0 87.837 15.142 Q 87.254 14.168 86.175 13.579 A 4.718 4.718 0 0 0 84.713 13.08 A 6.358 6.358 0 0 0 83.621 12.99 L 78.072 12.99 Z M 78.072 3.127 L 78.072 10.612 L 83.136 10.612 A 5.409 5.409 0 0 0 84.509 10.444 A 4.635 4.635 0 0 0 85.366 10.128 A 3.936 3.936 0 0 0 86.951 8.763 A 3.489 3.489 0 0 0 87.514 7.181 A 4.439 4.439 0 0 0 87.54 6.693 A 3.511 3.511 0 0 0 87.141 5.019 A 3.611 3.611 0 0 0 86.505 4.167 A 3.116 3.116 0 0 0 85.368 3.456 Q 84.873 3.271 84.256 3.19 A 7.935 7.935 0 0 0 83.224 3.127 L 78.072 3.127 Z M 51.564 17.13 L 51.564 14.752 A 0.598 0.598 0 0 1 51.44 14.86 Q 51.242 14.995 50.843 15.109 A 9.061 9.061 0 0 1 50.285 15.249 Q 49.949 15.323 49.566 15.385 A 38.071 38.071 0 0 1 48.338 15.562 A 34.306 34.306 0 0 1 48.168 15.583 A 200.794 200.794 0 0 0 47.845 15.622 Q 47.451 15.671 47.164 15.708 A 60.524 60.524 0 0 0 47.072 15.72 A 10.584 10.584 0 0 0 45.745 15.978 A 9.108 9.108 0 0 0 45.184 16.144 A 3.802 3.802 0 0 0 44.439 16.481 A 2.954 2.954 0 0 0 43.775 17.014 Q 43.241 17.592 43.241 18.583 A 2.888 2.888 0 0 0 43.361 19.435 A 2.188 2.188 0 0 0 44.249 20.625 Q 45.256 21.313 46.808 21.313 A 6.53 6.53 0 0 0 47.981 21.213 Q 48.681 21.085 49.251 20.794 A 3.963 3.963 0 0 0 49.412 20.707 A 4.535 4.535 0 0 0 50.419 19.94 A 3.884 3.884 0 0 0 51.019 19.144 Q 51.564 18.186 51.564 17.13 Z M 123.604 17.13 L 123.604 14.752 A 0.598 0.598 0 0 1 123.48 14.86 Q 123.282 14.995 122.883 15.109 A 9.061 9.061 0 0 1 122.325 15.249 Q 121.989 15.323 121.606 15.385 A 38.071 38.071 0 0 1 120.378 15.562 A 34.306 34.306 0 0 1 120.208 15.583 A 200.794 200.794 0 0 0 119.885 15.622 Q 119.491 15.671 119.203 15.708 A 60.524 60.524 0 0 0 119.112 15.72 A 10.584 10.584 0 0 0 117.785 15.978 A 9.108 9.108 0 0 0 117.224 16.144 A 3.802 3.802 0 0 0 116.479 16.481 A 2.954 2.954 0 0 0 115.815 17.014 Q 115.281 17.592 115.281 18.583 A 2.888 2.888 0 0 0 115.4 19.435 A 2.188 2.188 0 0 0 116.289 20.625 Q 117.296 21.313 118.848 21.313 A 6.53 6.53 0 0 0 120.021 21.213 Q 120.721 21.085 121.291 20.794 A 3.963 3.963 0 0 0 121.452 20.707 A 4.535 4.535 0 0 0 122.459 19.94 A 3.884 3.884 0 0 0 123.059 19.144 Q 123.604 18.186 123.604 17.13 Z M 170.5 17.13 L 170.5 14.752 A 0.598 0.598 0 0 1 170.376 14.86 Q 170.179 14.995 169.779 15.109 A 9.061 9.061 0 0 1 169.221 15.249 Q 168.885 15.323 168.502 15.385 A 38.071 38.071 0 0 1 167.274 15.562 A 34.306 34.306 0 0 1 167.104 15.583 A 200.794 200.794 0 0 0 166.782 15.622 Q 166.387 15.671 166.1 15.708 A 60.524 60.524 0 0 0 166.009 15.72 A 10.584 10.584 0 0 0 164.681 15.978 A 9.108 9.108 0 0 0 164.121 16.144 A 3.802 3.802 0 0 0 163.375 16.481 A 2.954 2.954 0 0 0 162.711 17.014 Q 162.178 17.592 162.178 18.583 A 2.888 2.888 0 0 0 162.297 19.435 A 2.188 2.188 0 0 0 163.185 20.625 Q 164.192 21.313 165.744 21.313 A 6.53 6.53 0 0 0 166.918 21.213 Q 167.617 21.085 168.188 20.794 A 3.963 3.963 0 0 0 168.348 20.707 A 4.535 4.535 0 0 0 169.355 19.94 A 3.884 3.884 0 0 0 169.955 19.144 Q 170.5 18.186 170.5 17.13 Z M 206.872 17.13 L 206.872 14.752 A 0.598 0.598 0 0 1 206.748 14.86 Q 206.551 14.995 206.151 15.109 A 9.061 9.061 0 0 1 205.594 15.249 Q 205.257 15.323 204.874 15.385 A 38.071 38.071 0 0 1 203.646 15.562 A 34.306 34.306 0 0 1 203.476 15.583 A 200.794 200.794 0 0 0 203.154 15.622 Q 202.759 15.671 202.472 15.708 A 60.524 60.524 0 0 0 202.381 15.72 A 10.584 10.584 0 0 0 201.053 15.978 A 9.108 9.108 0 0 0 200.493 16.144 A 3.802 3.802 0 0 0 199.747 16.481 A 2.954 2.954 0 0 0 199.084 17.014 Q 198.55 17.592 198.55 18.583 A 2.888 2.888 0 0 0 198.669 19.435 A 2.188 2.188 0 0 0 199.557 20.625 Q 200.564 21.313 202.116 21.313 A 6.53 6.53 0 0 0 203.29 21.213 Q 203.989 21.085 204.56 20.794 A 3.963 3.963 0 0 0 204.72 20.707 A 4.535 4.535 0 0 0 205.727 19.94 A 3.884 3.884 0 0 0 206.327 19.144 Q 206.872 18.186 206.872 17.13 Z M 129.548 6.341 L 138.311 6.341 L 138.311 8.543 L 129.548 8.543 L 129.548 6.341 Z M 23.866 3.523 Q 23.107 3.523 22.562 3.006 A 1.758 1.758 0 0 1 22.153 2.436 A 1.662 1.662 0 0 1 22.017 1.762 A 1.647 1.647 0 0 1 22.524 0.554 A 2.105 2.105 0 0 1 22.562 0.518 Q 23.107 0 23.866 0 Q 24.626 0 25.171 0.518 A 1.758 1.758 0 0 1 25.58 1.087 A 1.662 1.662 0 0 1 25.716 1.762 A 1.647 1.647 0 0 1 25.209 2.969 A 2.105 2.105 0 0 1 25.171 3.006 Q 24.626 3.523 23.866 3.523 Z M 60.195 3.523 Q 59.435 3.523 58.89 3.006 A 1.758 1.758 0 0 1 58.481 2.436 A 1.662 1.662 0 0 1 58.345 1.762 A 1.647 1.647 0 0 1 58.852 0.554 A 2.105 2.105 0 0 1 58.89 0.518 Q 59.435 0 60.195 0 Q 60.954 0 61.499 0.518 A 1.758 1.758 0 0 1 61.908 1.087 A 1.662 1.662 0 0 1 62.044 1.762 A 1.647 1.647 0 0 1 61.537 2.969 A 2.105 2.105 0 0 1 61.499 3.006 Q 60.954 3.523 60.195 3.523 Z" vector-effect="non-scaling-stroke"/></g></svg>